<svg xmlns="http://www.w3.org/2000/svg" width="1600" height="900" viewBox="0 0 1600 900" role="img" aria-labelledby="title desc">
  <title id="title">Paginas Web Showcase</title>
  <desc id="desc">Ilustracion demostrativa de tres sitios web: e-commerce de optica, reservas para traslados y micro sitio en Flask.</desc>
  <defs>
    <linearGradient id="bg" x1="0" y1="0" x2="1" y2="1">
      <stop offset="0%" stop-color="#fff0d9"/>
      <stop offset="100%" stop-color="#f97316"/>
    </linearGradient>
  </defs>
  <rect width="1600" height="900" fill="url(#bg)"/>
  <circle cx="1240" cy="160" r="170" fill="#ffffff" opacity="0.12"/>
  <text x="110" y="120" fill="#5b2400" font-family="Segoe UI, Arial, sans-serif" font-size="48" font-weight="700">Paginas Web Showcase</text>
  <text x="110" y="165" fill="#7c3200" font-family="Segoe UI, Arial, sans-serif" font-size="24">Sitios comerciales, reservas y micrositios para portafolio profesional</text>
  <rect x="95" y="215" width="450" height="580" rx="30" fill="#fffaf4"/>
  <rect x="95" y="215" width="450" height="44" rx="30" fill="#f4d6b5"/>
  <circle cx="135" cy="237" r="7" fill="#ef4444"/>
  <circle cx="158" cy="237" r="7" fill="#f59e0b"/>
  <circle cx="181" cy="237" r="7" fill="#22c55e"/>
  <text x="230" y="243" fill="#7c3200" font-family="Segoe UI, Arial, sans-serif" font-size="20">OPTIMANIA</text>
  <rect x="125" y="290" width="390" height="120" rx="24" fill="#0f172a"/>
  <text x="155" y="345" fill="#ffffff" font-family="Segoe UI, Arial, sans-serif" font-size="32" font-weight="700">Lentes y promociones</text>
  <text x="155" y="382" fill="#cbd5e1" font-family="Segoe UI, Arial, sans-serif" font-size="22">Catalogo, carrito, pago y panel admin</text>
  <rect x="125" y="440" width="115" height="150" rx="20" fill="#ffffff"/>
  <rect x="255" y="440" width="115" height="150" rx="20" fill="#ffffff"/>
  <rect x="385" y="440" width="130" height="150" rx="20" fill="#ffffff"/>
  <rect x="145" y="458" width="75" height="54" rx="12" fill="#bfdbfe"/>
  <rect x="275" y="458" width="75" height="54" rx="12" fill="#bfdbfe"/>
  <rect x="410" y="458" width="80" height="54" rx="12" fill="#fecaca"/>
  <text x="145" y="545" fill="#334155" font-family="Segoe UI, Arial, sans-serif" font-size="20">Producto</text>
  <text x="275" y="545" fill="#334155" font-family="Segoe UI, Arial, sans-serif" font-size="20">Catalogo</text>
  <text x="410" y="545" fill="#334155" font-family="Segoe UI, Arial, sans-serif" font-size="20">Carrito</text>
  <rect x="125" y="625" width="390" height="125" rx="24" fill="#eff6ff"/>
  <text x="155" y="675" fill="#1d4ed8" font-family="Segoe UI, Arial, sans-serif" font-size="30" font-weight="700">Admin y pedidos</text>
  <text x="155" y="712" fill="#3b82f6" font-family="Segoe UI, Arial, sans-serif" font-size="22">Usuarios, productos, promociones y flujo de compra</text>
  <rect x="575" y="215" width="450" height="580" rx="30" fill="#fffaf4"/>
  <rect x="575" y="215" width="450" height="44" rx="30" fill="#f4d6b5"/>
  <circle cx="615" cy="237" r="7" fill="#ef4444"/>
  <circle cx="638" cy="237" r="7" fill="#f59e0b"/>
  <circle cx="661" cy="237" r="7" fill="#22c55e"/>
  <text x="720" y="243" fill="#7c3200" font-family="Segoe UI, Arial, sans-serif" font-size="20">MYCABO</text>
  <rect x="605" y="290" width="390" height="110" rx="24" fill="#082f49"/>
  <text x="635" y="344" fill="#ffffff" font-family="Segoe UI, Arial, sans-serif" font-size="32" font-weight="700">Cotizaciones y reservas</text>
  <text x="635" y="378" fill="#cbe8ff" font-family="Segoe UI, Arial, sans-serif" font-size="22">Traslados, hoteles y unidades</text>
  <rect x="605" y="435" width="390" height="190" rx="24" fill="#ecfeff"/>
  <rect x="635" y="468" width="150" height="38" rx="12" fill="#d1fae5"/>
  <rect x="805" y="468" width="150" height="38" rx="12" fill="#d1fae5"/>
  <rect x="635" y="522" width="320" height="38" rx="12" fill="#cffafe"/>
  <rect x="635" y="576" width="220" height="18" rx="9" fill="#67e8f9"/>
  <text x="635" y="645" fill="#0f766e" font-family="Segoe UI, Arial, sans-serif" font-size="26" font-weight="700">Buscador, booking y SEO</text>
  <rect x="605" y="655" width="390" height="95" rx="24" fill="#f8fafc"/>
  <text x="635" y="708" fill="#334155" font-family="Segoe UI, Arial, sans-serif" font-size="22">Hoteles, FAQs, sitemaps y panel administrativo</text>
  <rect x="1055" y="215" width="450" height="580" rx="30" fill="#fffaf4"/>
  <rect x="1055" y="215" width="450" height="44" rx="30" fill="#f4d6b5"/>
  <circle cx="1095" cy="237" r="7" fill="#ef4444"/>
  <circle cx="1118" cy="237" r="7" fill="#f59e0b"/>
  <circle cx="1141" cy="237" r="7" fill="#22c55e"/>
  <text x="1178" y="243" fill="#7c3200" font-family="Segoe UI, Arial, sans-serif" font-size="20">OPTIMANIA maybe</text>
  <rect x="1085" y="290" width="390" height="120" rx="24" fill="#1e293b"/>
  <text x="1115" y="344" fill="#ffffff" font-family="Segoe UI, Arial, sans-serif" font-size="32" font-weight="700">Micro sitio Flask</text>
  <text x="1115" y="380" fill="#cbd5e1" font-family="Segoe UI, Arial, sans-serif" font-size="22">Landing, productos, testimonios y sucursales</text>
  <rect x="1085" y="440" width="180" height="140" rx="20" fill="#dbeafe"/>
  <rect x="1285" y="440" width="190" height="140" rx="20" fill="#dcfce7"/>
  <text x="1120" y="515" fill="#1d4ed8" font-family="Segoe UI, Arial, sans-serif" font-size="24" font-weight="700">/api/products</text>
  <text x="1314" y="515" fill="#15803d" font-family="Segoe UI, Arial, sans-serif" font-size="24" font-weight="700">/api/branches</text>
  <rect x="1085" y="615" width="390" height="135" rx="24" fill="#eff6ff"/>
  <text x="1115" y="668" fill="#334155" font-family="Segoe UI, Arial, sans-serif" font-size="25" font-weight="700">Showcase de variedad web</text>
  <text x="1115" y="706" fill="#475569" font-family="Segoe UI, Arial, sans-serif" font-size="21">E-commerce, reservas y micrositios en un solo portafolio</text>
</svg>
